<!DOCTYPE svg PUBLIC "-//W3C//DTD SVG 1.1//EN" "http://www.w3.org/Graphics/SVG/1.1/DTD/svg11.dtd">
<!-- Uploaded to: SVG Repo, www.svgrepo.com, Transformed by: SVG Repo Mixer Tools -->
<svg fill="#fb8500" version="1.1" id="Layer_1" xmlns="http://www.w3.org/2000/svg" xmlns:xlink="http://www.w3.org/1999/xlink" viewBox="0 0 512 512" xml:space="preserve" width="100px" height="100px">
<g id="SVGRepo_bgCarrier" stroke-width="0"/>
<g id="SVGRepo_tracerCarrier" stroke-linecap="round" stroke-linejoin="round"/>
<g id="SVGRepo_iconCarrier"> <g> <g> <rect x="272.879" y="85.521" width="92.846" height="46.508"/> </g> </g> <g> <g> <rect x="146.274" y="246.064" width="219.44" height="46.508"/> </g> </g> <g> <g> <rect x="146.274" y="165.787" width="219.44" height="46.508"/> </g> </g> <g> <g> <rect x="146.274" y="85.521" width="92.846" height="46.508"/> </g> </g> <g> <g> <path d="M446.829,0H65.17c-9.322,0-16.879,7.557-16.879,16.879v478.242c0,9.322,7.557,16.879,16.879,16.879H446.83 c9.322,0,16.879-7.557,16.879-16.879V16.879C463.708,7.557,456.152,0,446.829,0z M112.519,68.642 c0-9.322,7.557-16.879,16.879-16.879h253.204c9.322,0,16.879,7.557,16.879,16.879v240.809c0,9.322-7.557,16.879-16.879,16.879 H129.398c-9.322,0-16.879-7.557-16.879-16.879V68.642z M248.655,448.985H126.181c-9.322,0-16.879-7.557-16.879-16.879 s7.557-16.879,16.879-16.879h122.474c9.322,0,16.879,7.557,16.879,16.879S257.977,448.985,248.655,448.985z M423.61,413.93 l-60.222,60.222c-4.841,4.842-12.108,6.263-18.395,3.659c-6.307-2.613-10.42-8.767-10.42-15.594v-60.222 c0-9.322,7.557-16.879,16.879-16.879h60.222c6.827,0,12.981,4.112,15.594,10.42C429.881,401.842,428.438,409.103,423.61,413.93z"/> </g> </g> </g>
</svg>