<!DOCTYPE svg PUBLIC "-//W3C//DTD SVG 1.1//EN" "http://www.w3.org/Graphics/SVG/1.1/DTD/svg11.dtd">
<!-- Uploaded to: SVG Repo, www.svgrepo.com, Transformed by: SVG Repo Mixer Tools -->
<svg fill="#000000" width="115px" height="115px" viewBox="0 0 24 24" id="shipping-4" data-name="Flat Color" xmlns="http://www.w3.org/2000/svg" class="icon flat-color" transform="rotate(0)">
<g id="SVGRepo_bgCarrier" stroke-width="0"/>
<g id="SVGRepo_tracerCarrier" stroke-linecap="round" stroke-linejoin="round"/>
<g id="SVGRepo_iconCarrier">
<rect id="primary" x="12" y="12" width="10" height="10" rx="2" style="fill: #fb8500;"/>
<path id="secondary" d="M17,10a1,1,0,0,1-1-1V6H11a1,1,0,0,1,0-2h5a2,2,0,0,1,2,2V9A1,1,0,0,1,17,10Zm-1,2v3a1,1,0,0,0,2,0V12Z" style="fill: #ee6c4d;"/>
<path id="primary-2" data-name="primary" d="M5,2A3,3,0,0,0,2,5C2,7,4,9.39,4.24,9.65a1,1,0,0,0,1.52,0C6,9.39,8,7,8,5A3,3,0,0,0,5,2Z" style="fill: #fb8500;"/>
</g>
</svg>