<!DOCTYPE svg PUBLIC "-//W3C//DTD SVG 1.1//EN" "http://www.w3.org/Graphics/SVG/1.1/DTD/svg11.dtd">
<!-- Uploaded to: SVG Repo, www.svgrepo.com, Transformed by: SVG Repo Mixer Tools -->
<svg width="100px" height="100px" viewBox="0 0 100 100" xmlns="http://www.w3.org/2000/svg" version="1.1" fill="#000000">
<g id="SVGRepo_bgCarrier" stroke-width="0"/>
<g id="SVGRepo_tracerCarrier" stroke-linecap="round" stroke-linejoin="round"/>
<g id="SVGRepo_iconCarrier"> <path style="fill:#ee6c4d;stroke:none;" d="m 65,3 0,19 19,0 z"/> <path style="fill:#ee6c4d;stroke:#ffb703;stroke-width:2;" d="m 65,3 0,19 19,0 0,74 -72,0 0,-93 53,0 19,19"/> <path style="fill:none;stroke:#ffb703;stroke-width:2px;" d="m 32,26 44,0 -44,0 z m 0,9 44,0 -44,0 z m 0,9 44,0 -44,0 z m 0,9 44,0 -44,0 z m 0,9 44,0 -44,0 z m 0,9 44,0 -44,0 z "/> <path style="fill:#ee6c4d;stroke:#ffb703;" d="M 30,50 15,30 15,70 z"/> </g>
</svg>