<!DOCTYPE svg PUBLIC "-//W3C//DTD SVG 1.1//EN" "http://www.w3.org/Graphics/SVG/1.1/DTD/svg11.dtd">
<!-- Uploaded to: SVG Repo, www.svgrepo.com, Transformed by: SVG Repo Mixer Tools -->
<svg fill="#ffb703" version="1.1" id="Layer_1" xmlns="http://www.w3.org/2000/svg" xmlns:xlink="http://www.w3.org/1999/xlink" viewBox="0 0 512 512" xml:space="preserve" width="100px" height="100px">
<g id="SVGRepo_bgCarrier" stroke-width="0"/>
<g id="SVGRepo_tracerCarrier" stroke-linecap="round" stroke-linejoin="round"/>
<g id="SVGRepo_iconCarrier"> <g> <g> <polygon points="365.901,84.418 182.916,84.418 239.809,167.842 422.796,167.842 "/> </g> </g> <g> <g> <path d="M246.981,198.259V512h182.988V198.259H246.981z M282.468,236.695h112.013v135.478H282.468V236.695z M394.602,473.563 H282.347v-30.417h112.255V473.563z M394.602,422.868H282.347V392.45h112.255V422.868z"/> </g> </g> <g> <g> <rect x="312.881" y="267.113" width="51.182" height="74.644"/> </g> </g> <g> <g> <polygon points="146.098,84.418 82.031,178.358 82.031,512 216.564,512 216.564,187.742 "/> </g> </g> <g> <g> <path d="M322.377,0H176.05c-16.516,0-29.952,13.435-29.952,29.951v24.05h206.23v-24.05h0C352.329,13.435,338.893,0,322.377,0z"/> </g> </g> </g>
</svg>